<svg xmlns="http://www.w3.org/2000/svg" 
  xmlns:xlink="http://www.w3.org/1999/xlink" width="166.022" height="48.852" viewBox="0 0 166.022 48.852">
  <defs>
    <style>.a{fill:none;}.b{clip-path:url(#a);}.c{fill:#114878;}.d{fill:#336eb4;}</style>
    <clipPath id="a">
      <rect class="a" width="166.022" height="48.852" transform="translate(0.007 0.037)"/>
    </clipPath>
  </defs>
  <g class="b" transform="translate(-0.007 -0.037)">
    <g transform="translate(0.26 6.159)">
      <path class="c" d="M-143.724-31.761h10.007l3.885,14.989,3.842-14.989h10.007V-7.1h-6.249V-25.892L-127.046-7.1H-132.7l-4.813-18.789V-7.1h-6.249V-31.761Z" transform="translate(143.766 31.761)"/>
      <path class="c" d="M-88.093-31.761h7.642V-7.1h-7.642Z" transform="translate(120.141 31.761)"/>
      <path class="c" d="M-66.748-31.761h7.094l9.289,13.638V-31.761h7.178V-7.1h-7.178l-9.2-13.554V-7.1h-7.178Z" transform="translate(111.083 31.761)"/>
      <path class="c" d="M-18.264-31.761H-6.948a12.951,12.951,0,0,1,5.4.929,8.744,8.744,0,0,1,3.42,2.618,10.574,10.574,0,0,1,1.942,3.969,17.6,17.6,0,0,1,.591,4.771,16.761,16.761,0,0,1-.887,6.122A10.127,10.127,0,0,1,1.032-9.72a7.8,7.8,0,0,1-3.42,1.942,17.043,17.043,0,0,1-4.56.676H-18.264Zm7.6,5.573v13.469h1.858a7.177,7.177,0,0,0,3.378-.549,3.482,3.482,0,0,0,1.562-1.858,11.6,11.6,0,0,0,.591-4.265c0-2.618-.422-4.391-1.267-5.362s-2.28-1.436-4.222-1.436Z" transform="translate(90.508 31.761)"/>
    </g>
    <g transform="translate(98.218 6.244)">
      <path class="d" d="M26.406-31.614H40.677a7.8,7.8,0,0,1,5.489,1.773,5.723,5.723,0,0,1,1.9,4.391,5.621,5.621,0,0,1-1.351,3.758,6.248,6.248,0,0,1-2.66,1.647,6.85,6.85,0,0,1,3.927,2.2,6.007,6.007,0,0,1,1.267,3.927,6.817,6.817,0,0,1-.887,3.462,6.388,6.388,0,0,1-2.449,2.407,7.851,7.851,0,0,1-2.913.8c-1.731.211-2.871.338-3.42.338H26.406Zm7.685,9.669h3.293a3.762,3.762,0,0,0,2.491-.633,2.288,2.288,0,0,0,.718-1.773,2.166,2.166,0,0,0-.718-1.689,3.654,3.654,0,0,0-2.449-.591H34.048v4.687Zm0,9.669h3.885a4.331,4.331,0,0,0,2.787-.718,2.313,2.313,0,0,0,.8-1.858,2.2,2.2,0,0,0-.8-1.773,4.637,4.637,0,0,0-2.787-.676H34.091Z" transform="translate(-26.406 31.614)"/>
      <path class="d" d="M73.13-31.614h6.84v4.645H73.13Zm0,6.8h6.84v17.86H73.13Z" transform="translate(-46.234 31.614)"/>
      <path class="d" d="M93.668-31.614h6.882V-6.955H93.668Z" transform="translate(-54.949 31.614)"/>
      <path class="d" d="M114.133-31.614h6.882V-6.955h-6.882Z" transform="translate(-63.634 31.614)"/>
    </g>
    <rect class="c" width="137.183" height="0.844" transform="translate(8.578 42.809)"/>
    <rect class="d" width="11.823" height="11.823" transform="translate(0.007 37.067)"/>
    <rect class="d" width="11.823" height="11.823" transform="translate(143.777 37.067)"/>
    <rect class="c" width="11.823" height="11.823" transform="translate(97.543 37.067)"/>
    <rect class="d" width="11.823" height="11.823" transform="translate(48.775 37.067)"/>
    <g transform="translate(157.922 -0.005)">
      <path class="c" d="M138.23-38.416a3.852,3.852,0,0,1-.549,2.027,3.823,3.823,0,0,1-1.478,1.478,3.852,3.852,0,0,1-2.027.549,3.852,3.852,0,0,1-2.027-.549,3.824,3.824,0,0,1-1.478-1.478,3.852,3.852,0,0,1-.549-2.027,3.852,3.852,0,0,1,.549-2.027,3.824,3.824,0,0,1,1.478-1.478,3.852,3.852,0,0,1,2.027-.549,3.852,3.852,0,0,1,2.027.549,3.823,3.823,0,0,1,1.478,1.478A3.852,3.852,0,0,1,138.23-38.416Zm-.8,0a3.224,3.224,0,0,0-.971-2.322,3.155,3.155,0,0,0-2.322-.971,3.224,3.224,0,0,0-2.322.971,3.155,3.155,0,0,0-.971,2.322,3.224,3.224,0,0,0,.971,2.322,3.155,3.155,0,0,0,2.322.971,3.224,3.224,0,0,0,2.322-.971A3,3,0,0,0,137.428-38.416Zm-5.109-2.153h1.942a1.8,1.8,0,0,1,1.182.338,1.091,1.091,0,0,1,.38.887,1.017,1.017,0,0,1-.3.76,1.475,1.475,0,0,1-.887.464,1.519,1.519,0,0,1,.38.211,1.842,1.842,0,0,1,.338.422s.253.422.718,1.267H134.81a7.583,7.583,0,0,0-.844-1.478.576.576,0,0,0-.422-.253h-.127v1.689h-1.1Zm1.1,1.858h.464a1,1,0,0,0,.676-.169.443.443,0,0,0,.211-.38.412.412,0,0,0-.169-.38,1.139,1.139,0,0,0-.633-.169h-.507v1.1Z" transform="translate(-130.123 42.47)"/>
    </g>
  </g>
</svg>